<svg xmlns="http://www.w3.org/2000/svg" xmlns:xlink="http://www.w3.org/1999/xlink" width="500" zoomAndPan="magnify" viewBox="0 0 375 374.999991" height="500" preserveAspectRatio="xMidYMid meet" version="1.0"><defs><g/><clipPath id="e6e5474719"><path d="M 14.96875 14.96875 L 360.03125 14.96875 L 360.03125 360.03125 L 14.96875 360.03125 Z M 14.96875 14.96875 " clip-rule="nonzero"/></clipPath><clipPath id="397358b758"><path d="M 187.5 14.96875 C 92.210938 14.96875 14.96875 92.210938 14.96875 187.5 C 14.96875 282.789062 92.210938 360.03125 187.5 360.03125 C 282.789062 360.03125 360.03125 282.789062 360.03125 187.5 C 360.03125 92.210938 282.789062 14.96875 187.5 14.96875 Z M 187.5 14.96875 " clip-rule="nonzero"/></clipPath><clipPath id="348551305c"><path d="M 0.96875 0.96875 L 346.03125 0.96875 L 346.03125 346.03125 L 0.96875 346.03125 Z M 0.96875 0.96875 " clip-rule="nonzero"/></clipPath><clipPath id="fb06112246"><path d="M 173.5 0.96875 C 78.210938 0.96875 0.96875 78.210938 0.96875 173.5 C 0.96875 268.789062 78.210938 346.03125 173.5 346.03125 C 268.789062 346.03125 346.03125 268.789062 346.03125 173.5 C 346.03125 78.210938 268.789062 0.96875 173.5 0.96875 Z M 173.5 0.96875 " clip-rule="nonzero"/></clipPath><clipPath id="9478b7b396"><rect x="0" width="347" y="0" height="347"/></clipPath><clipPath id="cdacdc82c9"><path d="M 122 102 L 264.640625 102 L 264.640625 276 L 122 276 Z M 122 102 " clip-rule="nonzero"/></clipPath><clipPath id="c768dc1142"><rect x="0" width="265" y="0" height="375"/></clipPath></defs><g clip-path="url(#e6e5474719)"><g clip-path="url(#397358b758)"><g transform="matrix(1, 0, 0, 1, 14, 14)"><g clip-path="url(#9478b7b396)"><g clip-path="url(#348551305c)"><g clip-path="url(#fb06112246)"><path fill="#ff914d" d="M 0.96875 0.96875 L 346.03125 0.96875 L 346.03125 346.03125 L 0.96875 346.03125 Z M 0.96875 0.96875 " fill-opacity="1" fill-rule="nonzero"/></g></g></g></g></g></g><g transform="matrix(1, 0, 0, 1, 50, 0)"><g clip-path="url(#c768dc1142)"><g fill="#ffffff" fill-opacity="1"><g transform="translate(1.043122, 271.340092)"><g><path d="M 79.46875 4 C 70.363281 4 61.796875 3.375 53.765625 2.125 C 45.742188 0.875 38.40625 -0.691406 31.75 -2.578125 C 25.09375 -4.460938 19.316406 -6.351562 14.421875 -8.25 L 10.171875 -47.140625 C 18.585938 -43.359375 28.65625 -39.859375 40.375 -36.640625 C 52.09375 -33.421875 64.390625 -31.8125 77.265625 -31.8125 C 89.546875 -31.8125 98.195312 -33.054688 103.21875 -35.546875 C 108.25 -38.035156 110.765625 -42.023438 110.765625 -47.515625 L 110.765625 -48.296875 C 110.765625 -51.984375 109.625 -54.941406 107.34375 -57.171875 C 105.070312 -59.410156 101.1875 -61.34375 95.6875 -62.96875 C 90.195312 -64.601562 82.640625 -66.238281 73.015625 -67.875 C 58.421875 -70.53125 46.398438 -73.789062 36.953125 -77.65625 C 27.515625 -81.519531 20.5 -86.753906 15.90625 -93.359375 C 11.3125 -99.972656 9.015625 -108.648438 9.015625 -119.390625 L 9.015625 -120.671875 C 9.015625 -136.390625 14.832031 -148.300781 26.46875 -156.40625 C 38.101562 -164.519531 55.378906 -168.578125 78.296875 -168.578125 C 92.722656 -168.578125 105.109375 -167.394531 115.453125 -165.03125 C 125.804688 -162.675781 134.671875 -159.910156 142.046875 -156.734375 L 146.296875 -120.796875 C 137.710938 -124.578125 128.140625 -127.691406 117.578125 -130.140625 C 107.023438 -132.585938 95.820312 -133.8125 83.96875 -133.8125 C 75.726562 -133.8125 69.3125 -133.253906 64.71875 -132.140625 C 60.125 -131.023438 56.945312 -129.394531 55.1875 -127.25 C 53.425781 -125.101562 52.546875 -122.523438 52.546875 -119.515625 L 52.546875 -119.265625 C 52.546875 -116.085938 53.507812 -113.378906 55.4375 -111.140625 C 57.375 -108.910156 61.085938 -106.894531 66.578125 -105.09375 C 72.078125 -103.289062 80.019531 -101.441406 90.40625 -99.546875 C 104.65625 -97.054688 116.546875 -94.050781 126.078125 -90.53125 C 135.609375 -87.019531 142.734375 -82.0625 147.453125 -75.65625 C 152.179688 -69.257812 154.546875 -60.523438 154.546875 -49.453125 L 154.546875 -47.78125 C 154.546875 -30.257812 148.382812 -17.25 136.0625 -8.75 C 123.738281 -0.25 104.875 4 79.46875 4 Z M 79.46875 4 "/></g></g></g><g clip-path="url(#cdacdc82c9)"><g fill="#ffffff" fill-opacity="1"><g transform="translate(112.175926, 271.340092)"><g><path d="M 95.046875 4.5 C 66.878906 4.5 45.796875 -2.429688 31.796875 -16.296875 C 17.804688 -30.160156 10.8125 -49.671875 10.8125 -74.828125 L 10.8125 -90.53125 C 10.8125 -115.351562 17.785156 -134.628906 31.734375 -148.359375 C 45.691406 -162.097656 66.539062 -168.96875 94.28125 -168.96875 C 101.832031 -168.96875 108.828125 -168.429688 115.265625 -167.359375 C 121.703125 -166.285156 127.5625 -164.828125 132.84375 -162.984375 C 138.125 -161.140625 142.867188 -159.054688 147.078125 -156.734375 L 150.421875 -120.671875 C 143.898438 -124.023438 136.664062 -126.898438 128.71875 -129.296875 C 120.78125 -131.703125 111.617188 -132.90625 101.234375 -132.90625 C 85.597656 -132.90625 74.003906 -129.101562 66.453125 -121.5 C 58.898438 -113.90625 55.125 -103.367188 55.125 -89.890625 L 55.125 -75.859375 C 55.125 -62.296875 58.960938 -51.671875 66.640625 -43.984375 C 74.328125 -36.296875 86.585938 -32.453125 103.421875 -32.453125 C 113.203125 -32.453125 122.0625 -33.675781 130 -36.125 C 137.945312 -38.570312 145.226562 -41.425781 151.84375 -44.6875 L 148.5 -7.984375 C 144.375 -5.753906 139.628906 -3.691406 134.265625 -1.796875 C 128.898438 0.0859375 122.953125 1.609375 116.421875 2.765625 C 109.898438 3.921875 102.773438 4.5 95.046875 4.5 Z M 95.046875 4.5 "/></g></g></g></g></g></g></svg>