<svg xmlns="http://www.w3.org/2000/svg" width="1200" height="800" viewBox="0 0 1200 800" role="img" aria-label="Project image placeholder">
  <defs>
    <linearGradient id="g" x1="0" x2="1" y1="0" y2="1">
      <stop offset="0%" stop-color="#FFEAD5"/>
      <stop offset="100%" stop-color="#FEB273"/>
    </linearGradient>
  </defs>
  <rect width="1200" height="800" fill="url(#g)"/>
  <g fill="#FD853A" opacity="0.25">
    <circle cx="200" cy="200" r="120"/>
    <circle cx="1000" cy="150" r="80"/>
    <circle cx="950" cy="620" r="140"/>
  </g>
  <g fill="none" stroke="#FD853A" stroke-width="6" opacity="0.5">
    <rect x="140" y="140" width="920" height="520" rx="28"/>
  </g>
  <g transform="translate(0,20)">
    <path d="M220 540 L420 360 L540 480 L700 340 L980 560" stroke="#FD853A" stroke-width="10" fill="none" stroke-linecap="round" stroke-linejoin="round"/>
    <circle cx="220" cy="540" r="10" fill="#FD853A"/>
    <circle cx="420" cy="360" r="10" fill="#FD853A"/>
    <circle cx="540" cy="480" r="10" fill="#FD853A"/>
    <circle cx="700" cy="340" r="10" fill="#FD853A"/>
    <circle cx="980" cy="560" r="10" fill="#FD853A"/>
  </g>
  <g fill="#171717">
    <rect x="260" y="270" width="280" height="190" rx="16" fill="#ffffff" opacity="0.85"/>
    <rect x="540" y="300" width="320" height="220" rx="16" fill="#ffffff" opacity="0.85"/>
    <rect x="400" y="330" width="300" height="200" rx="16" fill="#ffffff" opacity="0.9"/>
  </g>
  <g fill="#171717" font-family="Urbanist, Lufga, Arial, sans-serif" text-anchor="middle">
    <text x="600" y="120" font-size="48" font-weight="700" fill="#171717">Project preview coming soon</text>
    <text x="600" y="170" font-size="22" fill="#344054">No image available</text>
  </g>
</svg>
